<?xml version="1.0" encoding="utf-8"?>
<!-- Generator: Adobe Illustrator 22.1.0, SVG Export Plug-In . SVG Version: 6.00 Build 0)  -->
<svg version="1.1" id="Layer_1" xmlns="http://www.w3.org/2000/svg" xmlns:xlink="http://www.w3.org/1999/xlink" x="0px" y="0px"
	 viewBox="0 0 100 100" enable-background="new 0 0 100 100" xml:space="preserve">
<g>
	<path fill="#0A4B71" d="M84.15,62.71H83.8v-42.8c0-0.143-0.03-0.284-0.09-0.414l-2.14-4.712V8.08c0-2.25-1.83-4.08-4.08-4.08H64.665h-21.85H29.99
		c-2.25,0-4.08,1.83-4.08,4.08v20.35L20.35,24.4V15c0-0.372-0.206-0.713-0.536-0.886c-0.328-0.173-0.726-0.149-1.033,0.063
		c-3.863,2.672-6.17,7.069-6.17,11.762c0,5.29,2.85,10.042,7.479,12.55V71.51c-4.63,2.507-7.479,7.26-7.479,12.55
		c0,4.693,2.307,9.09,6.17,11.762c0.308,0.212,0.705,0.236,1.033,0.063c0.33-0.173,0.536-0.514,0.536-0.886v-9.4l5.561-4.031v10.35
		c0,2.25,1.83,4.08,4.08,4.08h4.479H77h7.15c1.786,0,3.239-1.454,3.239-3.24v-3.43v-4.5V73.88v-4.5v-3.43
		C87.39,64.164,85.937,62.71,84.15,62.71z M85.39,72.88H82.82h-4.5H75.76v-2.5h9.63V72.88z M85.39,83.83H83.82v-8.95h1.569V83.83z
		 M79.32,83.83v-8.95h2.5v8.95H79.32z M75.76,83.83v-8.95h1.561v8.95H75.76z M75.76,85.83h2.561h4.5h2.569v2.5h-9.63V85.83z
		 M85.39,65.95v2.43h-9.63v-2.43c0-0.684,0.557-1.24,1.24-1.24h1.34h4.46h1.351C84.834,64.71,85.39,65.266,85.39,65.95z M81.8,62.71
		h-2.46V20.126l1.23-2.708l1.229,2.708V62.71z M63.538,6c-0.444,1.723-2.013,3-3.873,3h-11.85c-1.86,0-3.429-1.277-3.873-3H63.538z
		 M18.763,84.28c-0.26,0.188-0.413,0.489-0.413,0.81v7.799c-2.369-2.298-3.739-5.476-3.739-8.829c0-4.73,2.65-8.961,6.918-11.041
		c0.344-0.167,0.562-0.517,0.562-0.899V37.88c0-0.382-0.218-0.731-0.562-0.899C17.261,34.9,14.61,30.669,14.61,25.94
		c0-3.354,1.37-6.531,3.739-8.829v7.799c0,0.32,0.153,0.622,0.413,0.81l7.561,5.48c0.019,0.014,0.042,0.019,0.061,0.031
		c0.025,0.016,0.045,0.036,0.072,0.05c0.028,0.014,0.058,0.019,0.087,0.03c0.038,0.015,0.075,0.029,0.114,0.04
		c0.059,0.016,0.119,0.023,0.179,0.028c0.036,0.003,0.072,0.008,0.108,0.006c0.067-0.002,0.133-0.015,0.198-0.031
		c0.03-0.007,0.059-0.009,0.088-0.019c0.094-0.032,0.184-0.075,0.266-0.135l7.56-5.48c0.26-0.188,0.413-0.489,0.413-0.81v-7.796
		c2.37,2.302,3.74,5.479,3.74,8.826c0,4.727-2.655,8.958-6.929,11.041c-0.344,0.167-0.562,0.517-0.562,0.899v34.24
		c0,0.382,0.218,0.731,0.562,0.899c4.273,2.083,6.929,6.314,6.929,11.041c0,0.466-0.033,0.928-0.085,1.386
		c-0.017,0.146-0.045,0.289-0.067,0.434c-0.047,0.312-0.101,0.622-0.172,0.928c-0.038,0.163-0.081,0.325-0.126,0.486
		c-0.079,0.287-0.167,0.57-0.266,0.85c-0.055,0.156-0.11,0.312-0.172,0.466c-0.118,0.294-0.25,0.581-0.39,0.865
		c-0.062,0.125-0.117,0.253-0.183,0.376c-0.214,0.4-0.446,0.791-0.704,1.166c-0.018,0.027-0.041,0.051-0.059,0.078
		c-0.242,0.346-0.503,0.679-0.78,1c-0.097,0.112-0.203,0.217-0.304,0.326c-0.139,0.15-0.286,0.292-0.433,0.435V85.09
		c0-0.32-0.153-0.622-0.413-0.81l-7.56-5.48c-0.082-0.06-0.172-0.103-0.266-0.135c-0.03-0.01-0.061-0.013-0.092-0.02
		c-0.065-0.015-0.129-0.028-0.195-0.03c-0.036-0.001-0.071,0.004-0.107,0.006c-0.061,0.004-0.121,0.012-0.182,0.028
		c-0.039,0.01-0.075,0.024-0.112,0.039c-0.029,0.012-0.059,0.016-0.087,0.03c-0.026,0.013-0.047,0.034-0.072,0.05
		c-0.02,0.012-0.042,0.017-0.061,0.031L18.763,84.28z M27.91,91.92V81.57l5.56,4.03V94H29.99C28.844,94,27.91,93.067,27.91,91.92z
		 M37.184,94c0.092-0.096,0.173-0.201,0.262-0.299c0.124-0.135,0.244-0.273,0.362-0.412c0.237-0.28,0.46-0.569,0.674-0.865
		c0.096-0.133,0.196-0.262,0.287-0.398c0.281-0.418,0.544-0.848,0.78-1.293c0.008-0.016,0.019-0.03,0.027-0.046
		c0.242-0.462,0.452-0.94,0.642-1.425c0.058-0.148,0.106-0.3,0.159-0.45c0.123-0.347,0.235-0.698,0.331-1.055
		c0.047-0.176,0.091-0.352,0.131-0.53c0.082-0.358,0.147-0.72,0.201-1.086c0.024-0.163,0.054-0.325,0.072-0.49
		c0.059-0.526,0.097-1.056,0.097-1.591c0-0.992-0.1-1.964-0.294-2.907c-0.839-4.085-3.429-7.604-7.196-9.643V38.49
		c4.637-2.51,7.49-7.262,7.49-12.55c0-4.685-2.307-9.082-6.17-11.762c-0.307-0.212-0.704-0.236-1.034-0.064
		C33.677,14.287,33.47,14.628,33.47,15v9.4l-5.56,4.03V8.08c0-1.147,0.934-2.08,2.08-2.08h11.916c0.478,2.833,2.942,5,5.91,5h11.85
		c2.967,0,5.431-2.167,5.91-5H77.49c1.146,0,2.08,0.933,2.08,2.08v6.704l-2.141,4.713c-0.06,0.13-0.09,0.271-0.09,0.414v42.8H77
		c-1.787,0-3.24,1.454-3.24,3.24v3.43v4.5v10.95v4.5v3.43c0,0.221,0.023,0.437,0.065,0.646c0.017,0.085,0.051,0.163,0.075,0.246
		c0.034,0.117,0.06,0.237,0.106,0.348H37.184z M85.39,92.76c0,0.684-0.556,1.24-1.239,1.24H77c-0.684,0-1.24-0.556-1.24-1.24v-2.43
		h9.63V92.76z"/>
	<path fill="#0A4B71" d="M30.073,69.698V40.302c0-1.746-1.421-3.167-3.167-3.167s-3.166,1.421-3.166,3.167v29.396c0,1.746,1.42,3.167,3.166,3.167
		S30.073,71.444,30.073,69.698z M25.74,69.698V40.302c0-0.644,0.523-1.167,1.166-1.167c0.644,0,1.167,0.523,1.167,1.167v29.396
		c0,0.643-0.523,1.167-1.167,1.167C26.264,70.864,25.74,70.341,25.74,69.698z"/>
	<path fill="#0A4B71" d="M54.606,38.167c-0.357-0.619-1.375-0.619-1.732,0L39.787,60.833c-0.179,0.31-0.179,0.69,0,1s0.509,0.5,0.866,0.5h26.173
		c0.357,0,0.688-0.19,0.866-0.5s0.179-0.69,0-1L54.606,38.167z M42.386,60.333L53.74,40.667l11.354,19.667H42.386z"/>
	<path fill="#0A4B71" d="M52.74,46.35v7.12c0,0.552,0.447,1,1,1s1-0.448,1-1v-7.12c0-0.552-0.447-1-1-1S52.74,45.797,52.74,46.35z"/>
	<path fill="#0A4B71" d="M53.74,55.533c-0.553,0-1,0.448-1,1v0.911c0,0.552,0.447,1,1,1s1-0.448,1-1v-0.911
		C54.74,55.981,54.293,55.533,53.74,55.533z"/>
</g>
</svg>
