<svg height="480pt" viewBox="0 0 480 480.21694" width="480pt" xmlns="http://www.w3.org/2000/svg"><path fill="#0A4B71" d="m368.207031 184.109375h65.472657c3.898437 11.019531 15.164062 17.628906 26.6875 15.652344 11.519531-1.976563 19.941406-11.964844 19.941406-23.652344 0-11.691406-8.421875-21.679687-19.941406-23.65625-11.523438-1.976563-22.789063 4.636719-26.6875 15.65625h-65.472657v-16c-.019531-15.886719-9.441406-30.253906-24-36.609375v-27.390625h32c4.417969 0 8-3.582031 8-8v-33.472656c11.019531-3.898438 17.632813-15.164063 15.65625-26.6875-1.976562-11.519531-11.964843-19.9414065-23.65625-19.9414065-11.6875 0-21.675781 8.4218755-23.652343 19.9414065-1.976563 11.523437 4.632812 22.789062 15.652343 26.6875v25.472656h-32c-4.417969 0-8 3.582031-8 8v32h-16v-64c-.046875-.46875-.140625-.933594-.277343-1.386719 11.117187-3.777344 17.871093-15.046875 15.957031-26.636718-1.914063-11.585938-11.933594-20.085938-23.679688-20.085938-11.742187 0-21.761719 8.5-23.679687 20.085938-1.914063 11.589843 4.839844 22.859374 15.960937 26.636718-.140625.453125-.234375.917969-.28125 1.386719v64h-48v-64c-.046875-.46875-.140625-.933594-.277343-1.386719 11.117187-3.777344 17.871093-15.046875 15.957031-26.636718-1.914063-11.585938-11.933594-20.085938-23.679688-20.085938-11.742187 0-21.761719 8.5-23.679687 20.085938-1.914063 11.589843 4.839844 22.859374 15.960937 26.636718-.140625.453125-.234375.917969-.28125 1.386719v64h-48v-64c-.046875-.46875-.140625-.933594-.277343-1.386719 11.117187-3.777344 17.871093-15.046875 15.957031-26.636718-1.914063-11.585938-11.933594-20.085938-23.679688-20.085938-11.742187 0-21.761719 8.5-23.679687 20.085938-1.914063 11.589843 4.839844 22.859374 15.960937 26.636718-.140625.453125-.234375.917969-.28125 1.386719v64h-16v-32c0-4.417969-3.582031-8-8-8h-32v-25.472656c11.019531-3.898438 17.632813-15.164063 15.65625-26.6875-1.976562-11.519531-11.964843-19.9414065-23.65625-19.9414065-11.6875 0-21.675781 8.4218755-23.652343 19.9414065-1.976563 11.523437 4.632812 22.789062 15.652343 26.6875v33.472656c0 4.417969 3.582031 8 8 8h32v27.390625c-14.558593 6.355469-23.976562 20.722656-24 36.609375v16h-65.472656c-3.894531-11.019531-15.164063-17.632813-26.683594-15.65625s-19.941406 11.964844-19.941406 23.65625c0 11.6875 8.421875 21.675781 19.941406 23.652344 11.519531 1.976562 22.789063-4.632813 26.683594-15.652344h65.472656v48h-65.472656c-3.894531-11.019531-15.164063-17.632813-26.683594-15.65625s-19.941406 11.964844-19.941406 23.65625c0 11.6875 8.421875 21.675781 19.941406 23.652344 11.519531 1.976562 22.789063-4.632813 26.683594-15.652344h65.472656v48h-65.472656c-3.894531-11.019531-15.164063-17.632813-26.683594-15.65625s-19.941406 11.964844-19.941406 23.65625c0 11.6875 8.421875 21.675781 19.941406 23.652344 11.519531 1.976562 22.789063-4.632813 26.683594-15.652344h65.472656v16c.023438 15.886719 9.441407 30.253906 24 36.605469v27.394531h-32c-4.417969 0-8 3.582031-8 8v33.472656c-11.019531 3.894531-17.628906 15.164063-15.652343 26.683594 1.976562 11.519531 11.964843 19.941406 23.652343 19.941406 11.691407 0 21.679688-8.421875 23.65625-19.941406 1.976563-11.519531-4.636719-22.789063-15.65625-26.683594v-25.472656h32c4.417969 0 8-3.582031 8-8v-32h16v64c.046875.46875.140625.933594.28125 1.382813-11.121093 3.777343-17.875 15.050781-15.960937 26.636718 1.917968 11.589844 11.9375 20.089844 23.679687 20.089844 11.746094 0 21.765625-8.5 23.679688-20.089844 1.914062-11.585937-4.839844-22.859375-15.957031-26.636718.136718-.449219.230468-.914063.277343-1.382813v-64h48v64c.046875.46875.140625.933594.28125 1.382813-11.121093 3.777343-17.875 15.050781-15.960937 26.636718 1.917968 11.589844 11.9375 20.089844 23.679687 20.089844 11.746094 0 21.765625-8.5 23.679688-20.089844 1.914062-11.585937-4.839844-22.859375-15.957031-26.636718.136718-.449219.230468-.914063.277343-1.382813v-64h48v64c.046875.46875.140625.933594.28125 1.382813-11.121093 3.777343-17.875 15.050781-15.960937 26.636718 1.917968 11.589844 11.9375 20.089844 23.679687 20.089844 11.746094 0 21.765625-8.5 23.679688-20.089844 1.914062-11.585937-4.839844-22.859375-15.957031-26.636718.136718-.449219.230468-.914063.277343-1.382813v-64h16v32c0 4.417969 3.582031 8 8 8h32v25.472656c-11.019531 3.894531-17.628906 15.164063-15.652343 26.683594 1.976562 11.519531 11.964843 19.941406 23.652343 19.941406 11.691407 0 21.679688-8.421875 23.65625-19.941406 1.976563-11.519531-4.636719-22.789063-15.65625-26.683594v-33.472656c0-4.417969-3.582031-8-8-8h-32v-27.394531c14.558594-6.351563 23.980469-20.71875 24-36.605469v-16h65.472657c3.898437 11.019531 15.164062 17.628906 26.6875 15.652344 11.519531-1.976563 19.941406-11.964844 19.941406-23.652344 0-11.691406-8.421875-21.679687-19.941406-23.65625-11.523438-1.976563-22.789063 4.636719-26.6875 15.65625h-65.472657v-48h65.472657c3.898437 11.019531 15.164062 17.628906 26.6875 15.652344 11.519531-1.976563 19.941406-11.964844 19.941406-23.652344 0-11.691406-8.421875-21.679687-19.941406-23.65625-11.523438-1.976563-22.789063 4.636719-26.6875 15.65625h-65.472657zm88-16c4.417969 0 8 3.582031 8 8s-3.582031 8-8 8-8-3.582031-8-8 3.582031-8 8-8zm-80-152c4.417969 0 8 3.582031 8 8s-3.582031 8-8 8-8-3.582031-8-8 3.582031-8 8-8zm-72 0c4.417969 0 8 3.582031 8 8s-3.582031 8-8 8-8-3.582031-8-8 3.582031-8 8-8zm-64 0c4.417969 0 8 3.582031 8 8s-3.582031 8-8 8-8-3.582031-8-8 3.582031-8 8-8zm-64 0c4.417969 0 8 3.582031 8 8s-3.582031 8-8 8-8-3.582031-8-8 3.582031-8 8-8zm-72 0c4.417969 0 8 3.582031 8 8s-3.582031 8-8 8-8-3.582031-8-8 3.582031-8 8-8zm-80 168c-4.417969 0-8-3.582031-8-8s3.582031-8 8-8 8 3.582031 8 8-3.582031 8-8 8zm0 64c-4.417969 0-8-3.582031-8-8s3.582031-8 8-8 8 3.582031 8 8-3.582031 8-8 8zm0 64c-4.417969 0-8-3.582031-8-8s3.582031-8 8-8 8 3.582031 8 8-3.582031 8-8 8zm80 152c-4.417969 0-8-3.582031-8-8s3.582031-8 8-8 8 3.582031 8 8-3.582031 8-8 8zm72 0c-4.417969 0-8-3.582031-8-8s3.582031-8 8-8 8 3.582031 8 8-3.582031 8-8 8zm64 0c-4.417969 0-8-3.582031-8-8s3.582031-8 8-8 8 3.582031 8 8-3.582031 8-8 8zm64 0c-4.417969 0-8-3.582031-8-8s3.582031-8 8-8 8 3.582031 8 8-3.582031 8-8 8zm72 0c-4.417969 0-8-3.582031-8-8s3.582031-8 8-8 8 3.582031 8 8-3.582031 8-8 8zm80-168c4.417969 0 8 3.582031 8 8s-3.582031 8-8 8-8-3.582031-8-8 3.582031-8 8-8zm0-64c4.417969 0 8 3.582031 8 8s-3.582031 8-8 8-8-3.582031-8-8 3.582031-8 8-8zm-104 96c0 13.253906-10.746093 24-24 24h-176c-13.253906 0-24-10.746094-24-24v-176c0-13.253906 10.746094-24 24-24h176c13.253907 0 24 10.746094 24 24zm0 0"/><path fill="#0A4B71" d="m312.207031 160.109375h-144c-4.417969 0-8 3.582031-8 8v144c0 4.417969 3.582031 8 8 8h144c4.417969 0 8-3.582031 8-8v-144c0-4.417969-3.582031-8-8-8zm-8 144h-128v-128h128zm0 0"/><path fill="#0A4B71" d="m272.207031 288.109375h16v-96h-64v16h48zm0 0"/><path fill="#0A4B71" d="m256.207031 272.109375h-48v-80h-16v96h64zm0 0"/></svg>