<?xml version="1.0" standalone="no"?>
<!DOCTYPE svg PUBLIC "-//W3C//DTD SVG 20010904//EN"
 "http://www.w3.org/TR/2001/REC-SVG-20010904/DTD/svg10.dtd">
<svg version="1.0" xmlns="http://www.w3.org/2000/svg"
 width="1240.000000pt" height="1240.000000pt" viewBox="0 0 1240.000000 1240.000000"
 preserveAspectRatio="xMidYMid meet">
<metadata>
Created by potrace 1.14, written by Peter Selinger 2001-2017
</metadata>
<g transform="translate(0.000000,1240.000000) scale(0.100000,-0.100000)"
fill="#000000" stroke="none">
<path d="M9949 12395 c-2 -1 -22 -5 -44 -8 -212 -28 -447 -164 -592 -345 -43
-54 -54 -63 -65 -56 -4 3 -8 1 -8 -3 0 -5 -12 -8 -27 -9 -53 -1 -133 -17 -133
-26 0 -5 -5 -6 -10 -3 -12 7 -121 -15 -116 -24 2 -3 -8 -6 -22 -7 -34 -1 -65
-8 -120 -28 -23 -8 -45 -15 -47 -15 -18 0 -91 -27 -97 -36 -4 -5 -8 -7 -8 -2
0 4 -16 1 -35 -7 -19 -8 -35 -12 -35 -9 0 3 -6 1 -12 -4 -7 -6 -25 -13 -40
-17 -16 -3 -28 -11 -28 -17 0 -6 -4 -8 -10 -4 -9 5 -39 -6 -147 -57 -27 -12
-52 -23 -58 -24 -5 0 -59 -25 -120 -54 -60 -30 -113 -53 -117 -52 -5 1 -8 -2
-8 -7 0 -5 -15 -14 -32 -22 -18 -7 -50 -23 -70 -36 -21 -13 -44 -23 -53 -23
-8 0 -15 -4 -15 -8 0 -5 -12 -14 -27 -21 -41 -18 -229 -130 -367 -217 -45 -28
-85 -50 -89 -50 -5 1 -13 -7 -18 -16 -6 -10 -16 -18 -23 -18 -7 0 -21 -9 -31
-20 -10 -11 -22 -17 -26 -14 -5 3 -9 1 -9 -3 0 -5 -15 -17 -32 -28 -18 -10
-35 -21 -38 -25 -3 -3 -27 -22 -55 -40 -101 -69 -280 -202 -283 -211 -2 -5 -9
-9 -16 -9 -7 0 -23 -10 -36 -22 -13 -13 -49 -41 -80 -64 -30 -23 -70 -56 -89
-73 -19 -17 -37 -31 -40 -31 -4 0 -17 -10 -31 -23 -22 -19 -113 -95 -148 -122
-7 -5 -27 -23 -45 -40 -18 -16 -49 -43 -68 -58 -51 -42 -135 -116 -197 -174
-30 -29 -57 -53 -59 -53 -1 0 -11 -8 -21 -17 -10 -10 -72 -67 -137 -128 -65
-60 -124 -116 -132 -124 -8 -8 -74 -31 -146 -51 -146 -42 -341 -105 -372 -120
-11 -5 -45 -19 -75 -30 -30 -12 -73 -30 -95 -40 -187 -86 -221 -103 -227 -113
-4 -7 -8 -9 -8 -5 0 4 -17 -2 -37 -14 -21 -12 -56 -31 -78 -43 -64 -35 -90
-50 -95 -55 -9 -9 -44 -30 -68 -40 -14 -6 -20 -15 -16 -22 4 -7 3 -8 -5 -4 -9
6 -96 -47 -121 -74 -3 -3 -18 -12 -33 -20 -16 -8 -42 -27 -58 -42 -16 -16 -29
-25 -29 -22 0 3 -15 -7 -33 -22 -18 -16 -48 -40 -67 -54 -126 -93 -389 -346
-524 -505 -42 -49 -83 -97 -91 -106 -8 -9 -15 -21 -15 -27 0 -7 -4 -12 -8 -12
-5 0 -24 -21 -42 -47 -19 -27 -37 -50 -40 -53 -6 -5 -102 -147 -166 -245 -40
-62 -75 -123 -111 -195 -15 -30 -31 -57 -34 -60 -6 -5 -100 -197 -104 -212 -2
-5 -4 -11 -5 -15 -1 -5 -2 -11 -1 -15 0 -5 -3 -8 -9 -8 -6 0 -10 -3 -9 -7 1
-5 -2 -19 -7 -33 -4 -14 -7 -26 -5 -28 1 -1 -5 -10 -14 -18 -8 -9 -15 -23 -15
-33 0 -9 -4 -21 -9 -26 -5 -6 -25 -59 -45 -120 -20 -60 -40 -117 -43 -125 -8
-20 -11 -30 -18 -64 -3 -16 -8 -33 -11 -38 -3 -4 -7 -16 -9 -25 -1 -10 -11
-47 -20 -83 -18 -69 -23 -90 -31 -130 -3 -14 -9 -41 -14 -60 -10 -42 -23 -125
-25 -160 -1 -14 -5 -36 -9 -49 -5 -13 -10 -47 -12 -75 -2 -28 -6 -73 -9 -101
-10 -86 -15 -184 -18 -360 l-3 -170 -36 -65 c-20 -36 -47 -85 -60 -110 -90
-161 -208 -395 -208 -409 0 -5 -5 -11 -11 -13 -5 -2 -12 -10 -13 -18 -7 -30
-31 -80 -38 -80 -4 0 -8 -5 -8 -11 0 -7 -16 -43 -35 -80 -19 -38 -32 -69 -29
-69 3 0 -4 -13 -15 -29 -11 -15 -18 -31 -14 -35 3 -3 1 -6 -5 -6 -7 0 -11 -3
-10 -7 1 -5 -11 -35 -26 -68 -15 -33 -39 -85 -52 -115 -14 -30 -31 -68 -39
-83 -8 -16 -13 -33 -9 -38 3 -5 2 -9 -3 -9 -4 0 -13 -12 -20 -28 -6 -15 -19
-45 -29 -67 -9 -22 -18 -45 -19 -50 -2 -6 -12 -31 -23 -56 -12 -25 -31 -70
-42 -100 -12 -30 -27 -65 -33 -79 -5 -14 -11 -30 -12 -35 -2 -6 -12 -33 -23
-60 -11 -28 -35 -90 -52 -140 -18 -49 -36 -99 -41 -110 -21 -47 -47 -134 -42
-139 4 -3 2 -6 -4 -6 -6 0 -14 -15 -18 -32 -4 -18 -9 -35 -9 -38 -44 -132 -68
-208 -71 -220 -2 -8 -13 -46 -25 -84 -12 -38 -24 -77 -26 -87 -2 -11 -6 -28
-8 -39 -3 -11 -7 -24 -10 -28 -3 -5 -8 -24 -11 -43 -8 -42 -10 -50 -18 -69 -6
-13 -63 -255 -73 -305 -2 -11 -6 -31 -9 -45 -2 -14 -7 -38 -10 -55 -3 -16 -7
-41 -11 -55 -3 -14 -6 -32 -6 -40 0 -8 -5 -21 -11 -27 -6 -9 -6 -13 2 -13 9 0
9 -5 1 -20 -6 -10 -10 -23 -9 -27 1 -4 0 -10 -1 -13 -1 -3 -4 -21 -6 -40 -1
-19 -5 -46 -8 -60 -10 -48 -19 -120 -31 -260 -3 -30 -7 -84 -11 -120 -7 -82
-8 -450 -1 -510 3 -25 9 -76 12 -115 4 -38 9 -81 11 -95 3 -14 7 -38 10 -55 2
-16 9 -50 14 -75 6 -25 12 -56 14 -70 3 -14 5 -25 6 -25 2 0 5 -14 14 -53 8
-36 16 -65 25 -87 22 -52 63 -165 62 -172 0 -4 7 -15 14 -23 7 -8 16 -27 20
-42 4 -15 13 -32 21 -39 8 -6 14 -16 14 -22 0 -11 57 -105 77 -125 7 -7 13
-17 13 -21 0 -8 46 -64 96 -117 17 -19 30 -35 28 -37 -2 -2 7 -10 21 -17 14
-7 25 -16 25 -20 0 -10 126 -110 138 -110 6 0 12 -3 14 -7 9 -21 111 -79 131
-75 4 1 7 -2 7 -7 0 -7 97 -52 123 -57 4 -1 10 -3 15 -4 4 -1 10 -2 15 -1 4 0
7 -4 7 -11 0 -6 3 -9 6 -5 3 3 18 1 33 -5 14 -5 35 -12 46 -14 37 -9 50 -12
55 -14 3 -1 8 -2 11 -2 3 0 23 -3 45 -9 107 -25 401 -33 549 -15 39 4 84 10
100 11 17 2 31 4 33 5 3 3 10 5 67 15 28 4 55 9 60 11 6 1 21 5 35 8 126 27
378 103 398 119 6 5 12 7 12 4 0 -3 33 8 73 24 39 17 77 32 82 33 6 1 25 10
43 19 17 10 32 15 32 11 0 -4 6 -1 13 5 8 6 17 8 20 4 4 -3 7 -1 7 5 0 7 4 12
10 12 12 0 123 50 130 59 3 3 10 7 17 8 26 5 310 152 385 200 21 12 42 23 48
23 6 0 8 5 4 12 -4 6 -3 8 4 4 6 -3 31 7 55 24 25 16 48 30 52 30 3 0 27 15
53 32 26 18 49 33 52 33 9 1 95 60 98 68 2 4 8 7 13 7 11 0 163 101 167 112 2
4 9 8 16 8 7 0 21 8 32 18 11 9 42 33 69 52 28 19 55 38 60 42 6 4 54 40 108
79 53 39 97 75 97 80 0 5 7 9 15 9 8 0 29 13 47 30 17 16 34 30 37 30 3 0 17
10 31 23 14 12 50 41 80 64 30 23 67 53 82 65 14 13 35 30 45 38 30 25 137
114 149 125 6 6 32 28 58 50 25 22 60 52 78 68 17 15 35 27 40 27 4 0 8 7 8
15 0 9 7 18 16 22 21 8 59 42 278 247 l128 120 96 2 c162 3 365 18 382 29 6 3
10 1 10 -5 0 -6 5 -8 13 -3 13 8 21 10 87 18 25 3 55 7 66 9 12 3 37 7 55 10
56 10 124 24 124 26 0 1 16 3 35 5 19 1 36 8 38 13 2 6 10 8 17 6 12 -5 55 4
105 23 8 3 24 7 35 9 38 7 50 10 155 43 58 19 111 38 118 44 6 5 12 6 12 3 0
-4 10 -1 23 6 12 7 28 11 35 10 6 -2 12 1 12 6 0 5 6 9 14 9 8 0 31 8 52 18
22 11 44 20 50 21 5 1 37 14 70 30 32 15 65 29 73 30 8 1 18 9 22 16 5 7 9 10
9 6 0 -10 188 88 305 159 50 29 99 59 110 66 11 7 34 22 52 34 17 13 36 23 42
23 6 0 11 5 11 10 0 6 6 10 14 10 8 0 16 4 18 8 2 5 31 28 66 52 34 24 62 48
62 52 0 4 6 8 13 8 6 0 26 13 43 28 17 15 47 39 65 54 52 40 129 108 177 155
23 24 44 43 46 43 4 0 96 90 96 93 0 2 30 34 68 73 78 82 124 134 118 134 -3
0 8 12 22 28 15 15 38 42 52 61 14 18 33 41 43 49 9 9 17 22 17 29 0 7 4 13 9
13 11 0 77 102 73 113 -1 5 1 6 6 3 4 -2 21 16 37 42 16 26 35 53 42 60 7 7
13 19 13 27 0 7 4 15 8 17 10 4 72 105 72 118 0 6 3 10 8 10 4 0 27 39 52 87
25 49 48 90 53 91 4 2 7 8 7 14 0 6 22 56 49 112 27 55 55 118 62 139 7 20 17
37 23 37 5 0 7 3 4 6 -3 3 8 40 24 82 30 77 77 214 83 242 2 8 4 15 5 15 1 0
3 7 5 15 3 8 18 67 35 130 17 63 33 126 35 140 2 14 4 25 5 25 3 0 28 134 35
185 2 14 5 34 8 45 3 11 8 49 12 85 4 36 8 72 10 80 19 98 26 605 11 770 -10
103 -13 135 -16 135 -1 0 -3 20 -5 45 -2 25 -7 61 -11 80 -3 19 -8 49 -10 65
-3 17 -7 41 -10 55 -3 14 -8 36 -10 50 -2 14 -9 45 -14 70 -6 25 -13 55 -15
68 -3 12 -8 32 -11 45 -3 12 -7 29 -9 37 -2 8 -4 15 -5 15 -1 0 -3 7 -5 15 -2
8 -7 26 -10 40 -4 14 -9 37 -12 53 -3 15 -10 27 -15 27 -5 0 -7 4 -4 9 3 5
-14 64 -38 132 -35 102 -41 129 -32 149 5 14 20 48 33 77 13 28 23 55 23 58 0
3 8 25 19 48 20 45 33 80 31 85 0 1 7 17 17 35 9 17 16 36 15 41 -2 4 1 13 6
20 5 6 17 36 27 66 10 30 21 60 25 65 3 6 13 30 20 55 7 25 17 50 20 55 4 6
10 21 13 35 3 14 28 93 57 175 28 83 53 159 55 170 2 11 4 21 6 23 1 1 3 7 4
12 1 6 3 11 5 13 1 1 3 9 5 17 2 8 18 65 36 125 17 61 32 116 32 123 0 6 4 12
8 12 4 0 6 8 4 18 -1 9 0 22 4 27 3 6 6 15 7 20 1 6 7 30 13 55 12 45 16 64
26 110 4 14 9 36 12 50 3 14 7 35 7 48 1 12 4 22 7 22 3 0 6 6 6 13 1 13 9 57
19 97 3 14 7 39 9 55 2 17 4 30 5 30 2 0 7 24 15 75 3 25 9 59 12 75 3 17 6
45 7 63 0 17 3 32 6 32 3 0 6 22 8 49 2 28 5 60 7 73 3 13 8 57 11 98 3 41 8
95 10 120 7 68 10 500 4 500 -3 0 -6 21 -6 48 -2 66 -18 207 -24 207 -1 0 -3
16 -5 35 -1 19 -3 35 -4 35 -3 0 -7 18 -15 66 -3 20 -8 42 -10 50 -5 14 -13
48 -23 99 -2 14 7 50 21 83 26 59 62 172 74 237 14 73 7 302 -12 374 -10 38
-19 77 -21 85 -7 30 -53 133 -64 144 -6 6 -11 15 -11 20 0 28 -193 267 -215
267 -4 0 -13 7 -22 16 -22 22 -163 116 -163 108 0 -3 -15 3 -32 14 -41 25
-184 69 -263 81 -57 8 -249 13 -256 6z m-837 -802 c-10 -52 -8 -269 2 -318 4
-22 9 -49 11 -60 14 -84 85 -235 160 -340 129 -182 378 -344 568 -371 16 -2
32 -6 37 -9 7 -4 191 -19 215 -17 76 7 240 39 260 51 6 3 15 6 21 7 23 4 150
68 202 102 29 19 55 32 58 29 4 -3 8 -19 9 -34 2 -15 6 -46 9 -68 3 -22 6 -62
7 -88 2 -27 5 -50 8 -52 14 -8 2 -522 -14 -625 -4 -28 -15 -119 -20 -165 -1
-16 -5 -43 -8 -60 -12 -64 -19 -111 -22 -140 -2 -16 -4 -30 -5 -30 -2 0 -4 -9
-6 -20 -1 -11 -5 -30 -7 -41 -3 -12 -8 -38 -11 -59 -4 -20 -8 -40 -10 -44 -2
-3 -7 -24 -10 -46 -4 -22 -13 -67 -21 -100 -9 -33 -17 -69 -20 -80 -2 -11 -11
-46 -20 -79 -8 -32 -16 -69 -17 -82 -1 -13 -6 -24 -10 -24 -4 0 -8 -6 -8 -14
0 -18 -63 -234 -97 -335 -14 -42 -27 -83 -28 -91 0 -8 -7 -26 -14 -38 -7 -13
-10 -26 -7 -29 3 -4 2 -11 -3 -17 -5 -6 -23 -54 -41 -106 -17 -52 -36 -104
-41 -115 -25 -56 -58 -155 -51 -155 4 0 2 -4 -3 -8 -6 -4 -16 -20 -23 -36 -11
-25 -27 -29 -27 -7 0 12 -49 106 -57 109 -5 2 -8 8 -8 13 0 12 -62 113 -72
117 -4 2 -8 8 -8 14 0 16 -62 108 -73 108 -6 0 -8 3 -4 6 8 8 -167 250 -214
294 -8 8 -23 26 -32 39 -43 64 -262 291 -280 291 -6 0 -8 3 -5 6 3 3 -15 24
-40 47 -26 23 -59 53 -73 67 -14 14 -46 41 -69 60 -24 19 -49 41 -56 48 -7 6
-17 12 -23 12 -6 0 -11 4 -11 9 0 4 -44 40 -97 79 -54 40 -103 76 -110 82 -7
5 -17 10 -23 10 -5 0 -10 3 -10 8 0 4 -20 18 -45 32 -25 14 -45 28 -45 32 0 5
-4 8 -10 8 -5 0 -33 15 -62 34 -29 18 -56 33 -59 32 -4 0 -15 6 -25 15 -29 26
-101 59 -109 51 -5 -4 -5 -2 -2 4 6 10 -31 34 -61 40 -8 1 -22 10 -31 18 -10
9 -21 16 -24 16 -4 0 -44 17 -90 38 -45 21 -113 51 -152 67 -38 15 -85 34
-103 42 -18 8 -56 21 -85 29 -29 8 -61 19 -72 24 -18 9 -133 43 -247 75 -27 7
-48 11 -48 9 0 -3 -6 -2 -12 2 -7 5 -19 9 -28 10 -8 1 -26 5 -40 8 -27 6 -62
14 -100 21 -14 3 -41 7 -60 10 -19 2 -37 5 -40 6 -3 1 -9 3 -15 4 -5 2 -12 3
-15 4 -3 1 -21 4 -40 6 -19 2 -53 6 -75 10 -22 3 -67 8 -100 11 -33 3 -96 9
-140 13 -86 8 -525 6 -562 -3 -31 -7 -37 9 -10 27 12 9 43 35 69 59 25 24 68
61 94 83 26 22 58 50 70 63 13 12 27 22 33 22 5 0 11 3 13 8 2 4 21 22 43 40
22 19 58 49 80 68 69 58 117 94 127 94 5 0 6 5 3 10 -3 6 -1 10 5 10 6 0 18 6
26 13 74 61 133 107 139 107 3 0 12 6 19 13 7 6 25 21 40 32 16 11 33 25 40
30 6 6 32 26 59 43 26 18 47 38 47 43 0 6 4 8 8 5 5 -3 18 2 29 12 10 9 26 22
35 27 9 6 78 52 153 103 76 50 141 92 145 92 4 0 13 7 20 15 7 8 32 25 56 37
24 12 52 29 62 38 9 9 20 16 23 16 4 -1 29 14 57 32 27 17 55 32 61 32 6 0 11
5 11 10 0 6 9 10 20 10 11 0 20 4 20 8 0 5 23 19 50 32 28 13 50 27 50 32 0 4
3 7 8 6 8 -1 42 15 122 57 30 16 57 30 60 31 31 10 70 30 70 36 0 4 6 8 14 8
7 0 49 16 92 37 44 20 84 37 89 38 6 2 44 16 85 33 81 33 109 44 125 48 6 1
39 12 75 24 99 33 262 78 287 79 20 1 21 -2 15 -36z m-2139 -2746 c20 -1 37
-4 37 -7 0 -3 15 -7 33 -8 17 -1 56 -7 85 -13 29 -6 65 -12 80 -13 15 -2 34
-6 42 -9 17 -6 63 -16 100 -21 14 -2 26 -4 28 -5 1 -1 4 -1 7 -1 2 -1 20 -7
40 -16 19 -8 35 -12 35 -10 0 3 16 -2 35 -10 19 -8 35 -11 35 -8 0 4 6 2 13
-3 6 -6 30 -16 52 -22 42 -13 59 -19 115 -44 19 -9 38 -13 42 -11 4 3 8 0 8
-5 0 -6 4 -11 10 -11 5 0 58 -24 117 -52 60 -29 114 -52 120 -52 7 1 11 -2 8
-5 -2 -4 13 -17 33 -28 81 -44 116 -65 196 -121 101 -70 140 -99 179 -134 16
-16 33 -28 36 -28 3 0 27 -20 54 -45 26 -25 47 -43 47 -41 0 3 33 -31 73 -74
39 -43 78 -78 85 -79 6 -1 12 -5 12 -11 0 -5 15 -25 33 -44 48 -51 67 -75 67
-87 0 -5 5 -7 10 -4 6 3 10 -1 10 -9 0 -9 4 -16 8 -16 4 0 15 -12 24 -27 10
-16 28 -41 42 -58 14 -16 30 -35 36 -42 5 -7 10 -16 10 -21 0 -5 7 -15 15 -22
8 -7 21 -24 28 -39 8 -14 36 -62 64 -106 27 -44 62 -106 77 -138 16 -31 32
-57 37 -57 5 0 6 -7 3 -15 -4 -8 -1 -15 7 -15 7 0 10 -3 6 -6 -3 -3 5 -27 18
-52 13 -26 31 -71 41 -99 10 -29 22 -53 27 -53 4 0 5 -5 2 -10 -4 -6 -2 -16 3
-23 11 -15 52 -140 52 -162 0 -8 4 -15 10 -15 5 0 9 -3 8 -7 -3 -11 12 -86 20
-98 3 -5 7 -16 8 -25 2 -20 12 -78 19 -110 3 -14 8 -36 11 -50 30 -163 30
-165 -12 -249 -22 -42 -41 -78 -45 -81 -5 -4 -17 -33 -22 -50 -1 -5 -13 -21
-34 -44 -7 -8 -10 -16 -8 -18 3 -2 -11 -29 -30 -59 -20 -30 -41 -66 -48 -81
-6 -16 -15 -28 -19 -28 -5 0 -8 -6 -8 -14 0 -7 -7 -19 -15 -26 -8 -7 -15 -21
-15 -31 0 -11 -3 -19 -8 -19 -4 0 -16 -17 -27 -37 -11 -21 -23 -40 -26 -43 -3
-3 -18 -27 -34 -55 -15 -27 -36 -62 -46 -77 -11 -14 -19 -31 -19 -37 0 -6 -4
-11 -9 -11 -5 0 -11 -8 -15 -17 -5 -18 -26 -53 -36 -63 -3 -3 -43 -66 -90
-140 -46 -74 -88 -139 -93 -145 -14 -18 -117 -176 -117 -180 0 -3 -8 -14 -17
-25 -10 -11 -16 -23 -13 -25 3 -3 -5 -12 -17 -20 -13 -9 -23 -23 -23 -31 0 -8
-4 -14 -8 -14 -4 0 -16 -15 -26 -32 -11 -18 -28 -43 -39 -55 -11 -13 -17 -23
-13 -23 6 0 1 -7 -29 -43 -6 -7 -26 -34 -45 -62 -18 -27 -36 -52 -39 -55 -10
-9 -51 -69 -51 -75 0 -3 -7 -13 -16 -22 -8 -10 -35 -45 -60 -78 -24 -33 -51
-67 -59 -76 -8 -9 -15 -19 -15 -23 0 -7 -24 -40 -63 -86 -21 -24 -67 -90 -67
-94 0 -3 -16 -21 -35 -42 -19 -20 -35 -40 -35 -44 0 -4 -10 -18 -21 -31 -12
-13 -33 -40 -47 -59 -28 -37 -80 -101 -112 -137 -11 -12 -20 -27 -20 -32 0 -5
-3 -11 -7 -13 -5 -1 -43 -46 -86 -98 -43 -52 -92 -112 -110 -134 -18 -21 -36
-44 -40 -52 -4 -8 -24 -29 -42 -48 -19 -18 -35 -36 -35 -39 0 -3 -12 -18 -27
-34 -16 -16 -45 -47 -65 -70 -28 -31 -48 -43 -80 -49 -49 -9 -57 -11 -60 -14
-6 -4 -130 -24 -150 -23 -10 0 -18 -2 -18 -6 0 -3 -15 -6 -32 -7 -18 0 -67 -4
-108 -8 -109 -11 -392 -14 -412 -4 -10 5 -19 4 -23 -2 -4 -6 -11 -7 -17 -4 -6
4 -29 8 -52 10 -98 9 -141 13 -141 14 0 1 -11 4 -25 5 -14 2 -43 7 -65 11 -22
4 -50 7 -62 8 -13 1 -23 4 -23 7 0 4 -10 5 -22 5 -13 -1 -27 1 -33 5 -9 6 -25
10 -95 24 -14 3 -32 8 -40 12 -13 5 -30 10 -65 17 -5 1 -14 4 -20 7 -11 7 -80
30 -98 33 -7 1 -23 8 -37 16 -14 7 -27 13 -30 13 -3 0 -14 3 -25 8 -28 11 -59
22 -65 24 -3 0 -58 27 -122 58 -65 31 -121 57 -124 56 -4 0 -10 3 -13 8 -7 10
-64 47 -73 48 -6 0 -138 85 -148 95 -3 3 -27 21 -55 40 -27 19 -51 38 -53 42
-2 4 -10 8 -17 8 -7 0 -15 3 -17 8 -1 4 -28 27 -58 52 -114 93 -238 213 -330
320 -30 35 -64 74 -75 86 -11 12 -24 28 -30 37 -35 53 -131 183 -137 185 -4 2
-8 9 -8 15 0 7 -15 33 -34 60 -46 65 -215 406 -223 452 -2 11 -8 24 -13 29 -6
6 -10 20 -10 32 0 13 -4 26 -10 29 -5 3 -10 17 -10 31 0 13 -4 24 -10 24 -5 0
-9 3 -9 8 1 4 0 12 -1 17 -1 6 -3 15 -4 20 -11 49 -19 75 -25 75 -3 0 -6 10
-7 23 -1 12 -9 54 -18 92 -24 101 -27 117 -30 150 -2 17 -6 41 -9 55 -17 71
-31 278 -31 440 1 148 8 244 30 405 4 33 9 68 10 78 1 9 3 19 4 22 1 3 3 8 4
13 2 8 14 69 20 97 2 11 10 40 17 65 7 25 14 52 15 60 2 8 20 62 39 120 20 58
37 110 39 115 2 6 8 23 14 38 7 16 12 30 12 32 0 15 114 248 152 310 10 17 21
37 25 45 8 18 135 213 144 220 3 3 10 12 15 21 10 19 71 95 97 121 9 10 15 18
12 18 -7 0 43 55 166 181 52 55 98 99 101 99 3 0 23 17 45 38 21 20 56 51 77
67 21 17 45 36 52 43 8 7 14 11 14 8 0 -3 12 6 26 19 15 14 31 25 36 25 5 0 7
4 4 8 -3 5 0 9 7 9 7 0 53 28 102 60 50 33 117 75 150 93 33 18 66 37 73 43 6
5 12 6 12 1 0 -5 4 -4 8 1 11 15 191 100 205 97 4 -1 7 2 7 6 0 5 6 9 13 10 6
0 77 23 157 51 80 28 153 51 163 51 9 0 17 3 17 8 0 4 10 8 23 9 31 3 82 11
82 13 0 3 64 16 163 31 42 6 84 13 92 16 8 3 48 6 89 9 41 2 76 5 78 7 3 4
389 -2 496 -6z m2472 -3179 c-13 -78 -57 -286 -67 -323 -6 -22 -12 -42 -13
-45 -5 -20 -37 -128 -42 -140 -3 -8 -8 -24 -10 -34 -2 -11 -8 -25 -13 -31 -6
-7 -11 -24 -12 -39 -1 -14 -5 -26 -9 -26 -4 0 -10 -10 -14 -22 -4 -13 -8 -25
-10 -28 -29 -66 -35 -83 -29 -92 4 -6 3 -8 -3 -5 -6 4 -23 -22 -38 -58 -16
-36 -33 -65 -39 -65 -5 0 -7 -3 -3 -6 3 -3 -8 -28 -24 -55 -16 -28 -29 -54
-29 -59 0 -6 -4 -10 -9 -10 -5 0 -12 -8 -15 -17 -12 -34 -146 -232 -170 -252
-9 -7 -16 -20 -16 -27 0 -8 -4 -14 -8 -14 -4 0 -22 -19 -40 -42 -36 -47 -167
-193 -195 -217 -10 -9 -42 -38 -72 -66 -57 -54 -59 -55 -150 -128 -33 -27 -67
-54 -75 -60 -8 -7 -32 -23 -52 -36 -21 -12 -38 -26 -38 -29 0 -4 -14 -13 -30
-20 -17 -8 -36 -19 -43 -25 -7 -7 -28 -21 -47 -31 -19 -11 -37 -22 -40 -25 -6
-7 -128 -71 -135 -71 -3 0 6 12 19 28 56 62 76 87 76 94 0 4 10 18 23 31 27
28 52 60 125 157 31 41 65 82 74 91 10 9 18 22 18 28 0 6 7 14 15 17 8 4 15
10 15 16 0 5 6 15 13 23 26 27 47 56 47 63 0 4 10 19 23 32 43 50 87 109 87
119 0 6 3 11 8 11 4 0 18 17 32 37 28 42 114 161 130 180 5 7 10 16 10 22 0 5
4 11 8 13 8 2 98 130 152 212 8 13 52 78 98 145 45 67 82 126 82 131 0 6 4 10
8 10 4 0 21 23 37 50 16 28 33 50 37 50 4 0 7 3 6 8 -2 10 35 72 45 72 4 0 7
7 7 15 0 9 8 25 18 36 11 10 25 32 33 47 8 15 17 32 22 37 21 27 86 135 81
135 -2 0 4 10 16 22 11 12 20 28 20 35 0 7 5 13 10 13 6 0 10 5 10 11 0 6 14
30 30 54 17 24 30 48 30 52 0 9 20 33 27 33 2 0 1 -15 -2 -32z m-6590 -538 c2
-14 16 -65 31 -115 14 -49 26 -96 26 -102 1 -7 5 -13 10 -13 5 0 6 -5 3 -10
-4 -6 -1 -17 5 -25 7 -8 9 -15 6 -15 -4 0 -4 -6 1 -12 4 -7 9 -22 10 -32 2
-11 7 -24 12 -30 4 -6 11 -24 15 -41 4 -16 13 -43 21 -60 7 -16 18 -46 25 -65
13 -33 32 -77 87 -200 13 -30 38 -82 56 -115 17 -33 44 -87 61 -120 17 -33 34
-61 39 -63 4 -2 7 -10 7 -18 0 -8 5 -14 10 -14 6 0 10 -5 10 -12 0 -13 124
-211 146 -233 8 -7 14 -16 14 -20 0 -6 40 -62 93 -129 12 -16 29 -39 37 -52 8
-13 21 -24 29 -24 8 0 11 -3 8 -7 -16 -16 335 -390 474 -505 24 -20 54 -44 65
-55 12 -10 36 -29 54 -43 55 -42 95 -74 102 -85 4 -5 8 -7 8 -3 0 5 10 -1 23
-11 12 -11 33 -29 46 -40 13 -11 32 -23 42 -26 11 -4 19 -11 19 -16 0 -5 7 -9
15 -9 9 0 18 -7 21 -15 4 -8 11 -15 17 -15 6 0 40 -19 77 -42 85 -56 98 -64
140 -87 19 -10 62 -33 95 -51 128 -70 305 -152 305 -142 0 4 4 1 8 -6 5 -7 18
-14 30 -17 11 -2 29 -8 40 -14 10 -5 63 -26 118 -46 54 -20 106 -39 114 -42 8
-3 20 -7 25 -8 6 -1 13 -3 18 -5 4 -1 12 -4 17 -5 6 -1 11 -3 13 -5 1 -1 9 -3
17 -5 8 -2 30 -8 48 -14 17 -5 32 -7 32 -4 0 3 6 1 13 -5 19 -16 278 -75 374
-86 17 -2 35 -6 40 -9 7 -4 118 -19 151 -20 14 0 17 -24 3 -29 -5 -1 -36 -28
-68 -58 -33 -30 -93 -84 -133 -120 -41 -36 -85 -75 -97 -87 -13 -12 -23 -20
-23 -18 0 3 -16 -10 -35 -28 -19 -17 -51 -45 -72 -62 -20 -16 -45 -38 -55 -48
-10 -9 -21 -17 -24 -17 -4 0 -22 -15 -40 -34 -18 -19 -35 -31 -38 -28 -3 2 -8
-3 -12 -12 -3 -9 -10 -16 -16 -16 -5 0 -15 -6 -22 -12 -33 -32 -67 -58 -75
-58 -5 0 -11 -4 -13 -8 -1 -4 -24 -24 -50 -44 -26 -19 -44 -39 -40 -42 4 -4 2
-7 -3 -6 -21 5 -36 0 -30 -10 3 -6 0 -10 -8 -10 -8 0 -26 -11 -41 -25 -14 -13
-26 -22 -26 -19 0 3 -10 -4 -22 -16 -12 -11 -25 -20 -29 -20 -4 0 -24 -16 -45
-35 -22 -19 -44 -35 -51 -35 -6 0 -13 -3 -15 -8 -3 -7 -82 -63 -183 -129 -27
-17 -55 -37 -62 -43 -7 -5 -24 -15 -38 -22 -14 -6 -25 -14 -25 -18 0 -4 -18
-15 -40 -25 -22 -10 -40 -22 -40 -27 0 -4 -7 -8 -15 -8 -8 0 -15 -3 -15 -8 0
-4 -15 -13 -32 -21 -18 -8 -35 -17 -38 -21 -6 -7 -89 -56 -152 -89 -27 -13
-48 -29 -48 -33 0 -5 -4 -7 -9 -4 -5 3 -14 -1 -21 -9 -7 -8 -20 -15 -30 -15
-10 0 -23 -7 -30 -15 -7 -8 -16 -13 -20 -10 -5 3 -10 1 -12 -3 -1 -5 -39 -26
-83 -47 -44 -21 -83 -43 -86 -48 -3 -5 -10 -8 -15 -8 -5 1 -43 -14 -84 -33
-41 -19 -78 -34 -83 -35 -4 0 -22 -8 -40 -18 -17 -9 -34 -18 -37 -18 -38 -10
-60 -18 -60 -24 0 -4 -8 -7 -17 -8 -10 -1 -29 -6 -43 -11 -14 -5 -29 -11 -35
-12 -5 -1 -19 -7 -30 -13 -11 -6 -24 -12 -30 -13 -5 -2 -25 -7 -42 -13 -18 -5
-33 -7 -33 -3 0 4 -4 2 -8 -4 -4 -6 -54 -23 -112 -38 -58 -15 -109 -29 -115
-30 -5 -2 -32 -7 -60 -11 -27 -5 -52 -10 -55 -10 -3 -1 -27 -5 -55 -9 -27 -4
-61 -10 -75 -13 -48 -10 -335 -11 -394 -2 -32 6 -71 12 -85 14 -14 2 -46 9
-71 15 -25 7 -52 13 -60 15 -8 2 -16 4 -17 5 -2 2 -6 3 -10 4 -25 6 -170 80
-216 110 -46 31 -176 151 -214 199 -94 118 -212 384 -237 537 -3 14 -5 25 -6
25 -1 0 -3 7 -14 70 -14 75 -19 112 -19 138 0 15 -3 27 -6 27 -7 0 -11 88 -11
305 0 152 6 350 11 350 1 0 3 23 4 50 2 28 4 50 6 50 1 0 3 14 4 30 2 17 4 30
5 30 1 0 3 16 5 35 3 31 12 99 19 140 1 8 6 38 10 65 12 76 13 81 40 214 15
68 31 143 37 165 16 61 21 79 21 96 0 8 4 20 8 25 4 6 11 28 15 50 9 45 12 54
15 58 2 3 7 23 15 61 3 16 10 37 16 48 5 10 7 18 5 18 -3 0 -1 12 5 28 6 15
12 34 15 42 2 8 8 33 15 55 6 22 11 48 12 58 1 9 4 17 8 17 3 0 12 21 19 48 7
26 17 53 23 60 5 6 7 12 3 12 -4 0 26 95 51 160 3 8 7 20 9 25 1 6 9 29 17 52
9 22 13 44 10 47 -4 3 -2 6 4 6 10 0 36 75 33 94 -1 5 2 12 7 15 7 5 47 99 68
161 1 3 5 14 10 25 4 11 24 58 43 105 19 47 42 103 52 125 28 65 33 80 32 88
-1 4 3 7 8 7 6 0 10 6 10 14 0 13 31 85 98 226 14 30 26 57 27 60 3 11 91 195
173 361 l87 175 22 -100 c12 -56 25 -112 28 -126z"/>
</g>
</svg>
